<?xml version="1.0" encoding="UTF-8" standalone="no"?>
<!-- Created with Inkscape (http://www.inkscape.org/) -->

<svg
   xmlns:dc="http://purl.org/dc/elements/1.1/"
   xmlns:cc="http://creativecommons.org/ns#"
   xmlns:rdf="http://www.w3.org/1999/02/22-rdf-syntax-ns#"
   xmlns:svg="http://www.w3.org/2000/svg"
   xmlns="http://www.w3.org/2000/svg"
   xmlns:sodipodi="http://sodipodi.sourceforge.net/DTD/sodipodi-0.dtd"
   xmlns:inkscape="http://www.inkscape.org/namespaces/inkscape"
   width="647.0686"
   height="198.41063"
   viewBox="0 0 6.7402981 2.0667774"
   version="1.1"
   id="SVGRoot"
   inkscape:version="0.92.3 (2405546, 2018-03-11)"
   sodipodi:docname="button_path.svg">
  <sodipodi:namedview
     id="base"
     pagecolor="#ffffff"
     bordercolor="#666666"
     borderopacity="1.0"
     inkscape:pageopacity="0.0"
     inkscape:pageshadow="2"
     inkscape:zoom="0.98994949"
     inkscape:cx="354.38579"
     inkscape:cy="34.097466"
     inkscape:document-units="px"
     inkscape:current-layer="layer1"
     showgrid="true"
     inkscape:window-width="1920"
     inkscape:window-height="1013"
     inkscape:window-x="1271"
     inkscape:window-y="105"
     inkscape:window-maximized="1"
     units="px"
     objecttolerance="1"
     gridtolerance="1"
     guidetolerance="1"
     inkscape:snap-global="false"
     fit-margin-top="25"
     fit-margin-left="25"
     fit-margin-right="25"
     fit-margin-bottom="25">
    <inkscape:grid
       type="xygrid"
       id="grid1442"
       spacingx="0.26041667"
       spacingy="0.26041667"
       dotted="false"
       enabled="true"
       visible="true"
       originx="-0.96540567"
       originy="-4.4330667" />
  </sodipodi:namedview>
  <defs
     id="defs883" />
  <metadata
     id="metadata886">
    <rdf:RDF>
      <cc:Work
         rdf:about="">
        <dc:format>image/svg+xml</dc:format>
        <dc:type
           rdf:resource="http://purl.org/dc/dcmitype/StillImage" />
        <dc:title></dc:title>
        <dc:creator>
          <cc:Agent>
            <dc:title>Jacob Strieb</dc:title>
          </cc:Agent>
        </dc:creator>
      </cc:Work>
    </rdf:RDF>
  </metadata>
  <g
     id="layer1"
     inkscape:groupmode="layer"
     inkscape:label="Layer 1"
     transform="translate(-0.96540557,-4.500156)">
    <g
       id="g825"
       transform="matrix(0.62723949,0,0,0.6151242,1.7312766,2.3680217)"
       style="stroke-width:1.60991108">
      <rect
         ry="0.50802749"
         rx="0.49821481"
         y="3.948236"
         x="-0.74714482"
         height="2.3958333"
         width="9.7982244"
         id="rect816"
         style="opacity:1;fill:none;fill-opacity:1;stroke:#ff0000;stroke-width:0.11738935;stroke-linecap:butt;stroke-linejoin:miter;stroke-miterlimit:4;stroke-dasharray:none;stroke-dashoffset:0;stroke-opacity:1;paint-order:normal" />
      <g
         aria-label="Drag me to your bookmarks bar!"
         transform="scale(0.97112147,1.0297373)"
         style="font-style:normal;font-variant:normal;font-weight:normal;font-stretch:normal;font-size:0.72084427px;line-height:125%;font-family:Roboto;-inkscape-font-specification:Roboto;text-align:center;text-anchor:middle;opacity:1;fill:#ff0000;fill-opacity:1;stroke:#ff0000;stroke-width:0;stroke-linecap:butt;stroke-linejoin:miter;stroke-miterlimit:4;stroke-dasharray:none;stroke-dashoffset:0;stroke-opacity:1;paint-order:normal"
         id="text820">
        <path
           d="M -0.2389924,5.1643753 V 4.7381339 q -0.001056,-0.00704 -0.0126711,-0.010559 -0.009151,-0.00282 -0.0123191,-0.0081 -0.003168,-0.00563 -0.003168,-0.023582 0,-0.013023 0.004576,-0.017247 0.004576,-0.00422 0.0235823,-0.00422 h 0.1685959 q 0.07215483,0 0.11931944,0.066523 0.04751659,0.066523 0.04751659,0.2210401 0,0.1407899 -0.04575672,0.2108329 -0.04575671,0.069691 -0.12107931,0.069691 h -0.18584266 q -0.007743,0 -0.0109112,-0.00352 -0.002816,-0.00387 -0.002816,-0.016543 0,-0.015135 0.001056,-0.019007 0.001056,-0.00387 0.0102073,-0.0088 0.0197106,-0.010207 0.0197106,-0.03027 z m 0.13093461,-0.4480639 v 0.487485 h 0.01865466 q 0.01971058,0 0.02886193,-0.016191 0.0091513,-0.016543 0.0091513,-0.058428 V 4.7694596 q 0,-0.023582 -0.01126319,-0.038365 -0.01126319,-0.014783 -0.0320297,-0.014783 z"
           style="font-style:normal;font-variant:normal;font-weight:normal;font-stretch:condensed;font-family:'Bernard MT Condensed';-inkscape-font-specification:'Bernard MT Condensed,  Condensed';fill:#ff0000;fill-opacity:1;stroke-width:0;stroke-miterlimit:4;stroke-dasharray:none"
           id="path835" />
        <path
           d="m 0.25482816,4.8553414 q 0.004224,-0.00845 0.0102073,-0.029566 0.013375,-0.045757 0.0260461,-0.057372 0.0130231,-0.011615 0.02851,-0.011615 0.0211185,0 0.0316777,0.020063 0.0109112,0.020062 0.0109112,0.050332 0,0.065115 -0.0366054,0.065115 -0.0183027,0 -0.028158,-0.02147 -0.005984,-0.012319 -0.0123191,-0.012319 -0.0158389,0 -0.0158389,0.034845 v 0.2812278 q 0,0.013375 0.0123191,0.019711 0.0123191,0.00598 0.0123191,0.019359 v 0.015839 q 0,0.00845 -0.002112,0.010911 -0.00176,0.00211 -0.0109112,0.00211 H 0.14817981 q -0.013727,0 -0.013727,-0.013023 V 5.210132 q 0,-0.00986 0.005984,-0.013023 0.0119671,-0.00598 0.0119671,-0.018303 V 4.8243677 q 0,-0.011967 -0.008447,-0.017247 -0.009151,-0.00528 -0.0105592,-0.0081 -0.001408,-0.00317 -0.001408,-0.018303 0,-0.012671 0.00352,-0.015839 0.003872,-0.00317 0.0126711,-0.00317 h 0.0950332 q 0.006688,0 0.009151,0.00387 0.002464,0.00352 0.002464,0.017599 z"
           style="font-style:normal;font-variant:normal;font-weight:normal;font-stretch:condensed;font-family:'Bernard MT Condensed';-inkscape-font-specification:'Bernard MT Condensed,  Condensed';fill:#ff0000;fill-opacity:1;stroke-width:0;stroke-miterlimit:4;stroke-dasharray:none"
           id="path837" />
        <path
           d="M 0.56667777,4.9014501 V 4.833519 q 0,-0.028158 -0.0228784,-0.028158 -0.0313257,0 -0.0313257,0.042589 0,0.023934 -0.005632,0.034141 -0.00528,0.010207 -0.0246382,0.017599 -0.0190066,0.00704 -0.0408291,0.00704 -0.0447008,0 -0.0447008,-0.047869 0,-0.045053 0.0387172,-0.073563 0.0390692,-0.02851 0.1017207,-0.02851 0.041181,0 0.0739147,0.011263 0.0330856,0.011263 0.0527962,0.038013 0.0197106,0.02675 0.0197106,0.05878 v 0.3213529 q 7.0395e-4,0.00246 0.0105593,0.010559 0.007039,0.00528 0.007039,0.015487 0,0.014079 -0.003872,0.020063 -0.003872,0.00563 -0.0190066,0.010559 -0.0147829,0.00493 -0.0373093,0.00493 -0.027454,0 -0.0457567,-0.00986 -0.0183027,-0.010207 -0.02851,-0.039421 -0.0306218,0.031678 -0.0496284,0.040477 -0.0190066,0.0088 -0.0390692,0.0088 -0.0447008,0 -0.069339,-0.034845 -0.0242863,-0.035198 -0.0242863,-0.1147438 0,-0.079546 0.0228784,-0.1101681 0.0228784,-0.030974 0.0894016,-0.05702 0.042237,-0.016191 0.070043,-0.029566 z m 0,0.045757 q -0.0397731,0.017599 -0.0475166,0.039773 -0.007743,0.021822 -0.007743,0.098905 0,0.056668 0.006336,0.071803 0.006336,0.014783 0.0218224,0.014783 0.0271021,0 0.0271021,-0.045053 z"
           style="font-style:normal;font-variant:normal;font-weight:normal;font-stretch:condensed;font-family:'Bernard MT Condensed';-inkscape-font-specification:'Bernard MT Condensed,  Condensed';fill:#ff0000;fill-opacity:1;stroke-width:0;stroke-miterlimit:4;stroke-dasharray:none"
           id="path839" />
        <path
           d="m 0.93061964,4.7617162 q 0.0116152,-0.011615 0.0116152,-0.018303 0,-0.0095 -0.014079,-0.017599 -0.0190066,-0.011263 -0.0190066,-0.027454 0,-0.032734 0.0450528,-0.032734 0.027454,0 0.0401251,0.011263 0.0126711,0.011263 0.0126711,0.027454 0,0.030974 -0.0457567,0.072859 0.0777864,0.05526 0.0777864,0.1509972 0,0.08201 -0.0450528,0.1298787 -0.0447008,0.047869 -0.10348058,0.047869 -0.0183027,0 -0.0401251,-0.00598 -0.0119671,-0.00282 -0.0179507,-0.00282 -0.0112632,0 -0.0239343,0.00845 -0.0123191,0.00845 -0.0123191,0.018303 0,0.017247 0.0383653,0.017247 h 0.0960891 q 0.0513883,0 0.084122,0.021119 0.032734,0.021119 0.032734,0.067931 0,0.099257 -0.16894792,0.099257 -0.0651153,0 -0.10488847,-0.013023 -0.0394212,-0.013023 -0.0394212,-0.041181 0,-0.015135 0.008095,-0.023934 0.008095,-0.00845 0.02851,-0.018655 0.002816,-0.00141 0.008447,-0.00422 -0.0482205,-0.021119 -0.0482205,-0.070043 0,-0.05526 0.068987,-0.082714 -0.0651153,-0.051388 -0.0651153,-0.139382 0,-0.07849 0.0439968,-0.1291747 0.0443488,-0.051036 0.1073523,-0.051036 0.0179507,0 0.0443488,0.00563 z m -0.0179507,0.088346 q 0,-0.045757 -0.0253422,-0.045757 -0.0126711,0 -0.0200626,0.014783 -0.007391,0.014431 -0.007391,0.030974 v 0.1749315 q 0,0.014431 0.007039,0.024286 0.007391,0.0095 0.0186547,0.0095 0.0119671,0 0.0193586,-0.010207 0.007743,-0.010559 0.007743,-0.02675 z m -0.0872897,0.390692 q -0.0228784,0.00915 -0.0228784,0.022526 0,0.013375 0.0161908,0.020063 0.0165428,0.00669 0.0679311,0.00669 0.0886976,0 0.0886976,-0.030974 0,-0.017599 -0.0299179,-0.017599 h -0.097497 q -0.0116152,0 -0.0225264,-7.039e-4 z"
           style="font-style:normal;font-variant:normal;font-weight:normal;font-stretch:condensed;font-family:'Bernard MT Condensed';-inkscape-font-specification:'Bernard MT Condensed,  Condensed';fill:#ff0000;fill-opacity:1;stroke-width:0;stroke-miterlimit:4;stroke-dasharray:none"
           id="path841" />
        <path
           d="m 1.5564307,4.8116966 q 0.050332,-0.054908 0.094681,-0.054908 0.019359,0 0.036605,0.0081 0.017599,0.0081 0.02851,0.029918 0.010911,0.02147 0.010911,0.047165 v 0.3333201 q 0,0.00915 0.00774,0.017951 0.0088,0.00986 0.0088,0.019711 v 0.016895 q 0,0.012671 -0.011615,0.012671 H 1.6317533 Q 1.6106348,5.2259708 1.6106348,5.1911253 V 4.8595651 q 0,-0.024286 -0.023582,-0.024286 -0.014783,0 -0.022878,0.00774 -0.00774,0.00739 -0.00774,0.018655 v 0.3178332 q 0,0.00986 0.010559,0.018303 0.00634,0.00528 0.00634,0.010911 v 0.021118 q 0,0.012671 -0.011967,0.012671 H 1.4589337 Q 1.4395751,5.223507 1.4395751,5.1911253 V 4.8595651 q 0,-0.02323 -0.019007,-0.02323 -0.00774,0 -0.02675,0.010207 -0.00176,0.00106 -0.00528,0.00282 v 0.3301523 q 0,0.0095 0.010911,0.017951 0.00704,0.00528 0.00704,0.013375 v 0.019007 q 0,0.012671 -0.012671,0.012671 H 1.2614759 q -0.0095,0 -0.0095,-0.00845 v -0.02323 q 0,-0.00528 0.0095,-0.015135 0.010207,-0.010207 0.010207,-0.016191 V 4.8240157 q 0,-0.014079 -0.012319,-0.019359 -0.00739,-0.00317 -0.00739,-0.013727 v -0.017951 q 0,-0.011263 0.013727,-0.011263 h 0.1105201 q 0.012319,0 0.012319,0.011263 v 0.035549 q 0.046461,-0.05174 0.093625,-0.05174 0.047517,0 0.074267,0.054908 z"
           style="font-style:normal;font-variant:normal;font-weight:normal;font-stretch:condensed;font-family:'Bernard MT Condensed';-inkscape-font-specification:'Bernard MT Condensed,  Condensed';fill:#ff0000;fill-opacity:1;stroke-width:0;stroke-miterlimit:4;stroke-dasharray:none"
           id="path843" />
        <path
           d="m 1.9077016,4.9950754 v 0.1439577 q 0,0.02851 0.010911,0.044701 0.011263,0.016191 0.02851,0.016191 0.02675,0 0.042589,-0.022526 0.016191,-0.022878 0.017247,-0.062299 3.52e-4,-0.021119 0.00387,-0.025342 0.00387,-0.00422 0.025694,-0.00422 0.019007,0 0.023934,0.00387 0.00528,0.00387 0.00528,0.019359 0,0.054204 -0.035198,0.096441 -0.035197,0.042237 -0.093273,0.042237 -0.066523,0 -0.1129839,-0.060188 -0.046461,-0.06054 -0.046461,-0.1819709 0,-0.1214313 0.042941,-0.1847868 0.042941,-0.063707 0.1126319,-0.063707 0.059836,0 0.096089,0.0535 0.036253,0.0535 0.036253,0.1520531 v 0.032734 z m 0.047517,-0.043997 V 4.8345749 q 0,-0.033086 -0.023582,-0.033086 -0.023934,0 -0.023934,0.033086 v 0.1165037 z"
           style="font-style:normal;font-variant:normal;font-weight:normal;font-stretch:condensed;font-family:'Bernard MT Condensed';-inkscape-font-specification:'Bernard MT Condensed,  Condensed';fill:#ff0000;fill-opacity:1;stroke-width:0;stroke-miterlimit:4;stroke-dasharray:none"
           id="path845" />
        <path
           d="m 2.2917059,4.8099367 h -0.013727 q -0.00598,0 -0.00774,-0.00141 -0.00141,-0.00141 -0.00141,-0.00774 v -0.025342 q 0,-0.00704 0.00141,-0.00915 0.00176,-0.00211 0.0095,-0.00317 0.025342,-0.00387 0.051036,-0.028158 0.025694,-0.024286 0.030622,-0.052092 0.00176,-0.00986 0.00422,-0.011967 0.00282,-0.00246 0.010911,-0.00246 h 0.022878 q 0.00915,0 0.00915,0.012319 v 0.080954 h 0.021823 q 0.012319,0 0.012319,0.011615 v 0.025342 q 0,0.011263 -0.012319,0.011263 h -0.021823 v 0.3646458 q 0,0.018655 0.016543,0.02675 0.0081,0.00387 0.010559,0.0095 0.00246,0.00563 0.00246,0.020415 0,0.00915 -0.00141,0.010207 -0.00106,0.00106 -0.00845,0.00106 h -0.111224 q -0.025342,-0.022526 -0.025342,-0.067931 z"
           style="font-style:normal;font-variant:normal;font-weight:normal;font-stretch:condensed;font-family:'Bernard MT Condensed';-inkscape-font-specification:'Bernard MT Condensed,  Condensed';fill:#ff0000;fill-opacity:1;stroke-width:0;stroke-miterlimit:4;stroke-dasharray:none"
           id="path847" />
        <path
           d="m 2.626082,4.7567885 q 0.066171,0 0.1105201,0.059484 0.044349,0.059132 0.044349,0.1759874 0,0.126007 -0.045053,0.1907703 -0.045053,0.064411 -0.1122799,0.064411 -0.046461,0 -0.080602,-0.029566 -0.034142,-0.029566 -0.052796,-0.078842 -0.018303,-0.049276 -0.018303,-0.1348063 0,-0.1221353 0.042237,-0.1847868 0.042589,-0.062652 0.111928,-0.062652 z m 0.025342,0.088346 q 0,-0.043645 -0.025342,-0.043645 -0.027454,0 -0.027454,0.0535 v 0.292491 q 0,0.053148 0.02499,0.053148 0.027806,0 0.027806,-0.053148 z"
           style="font-style:normal;font-variant:normal;font-weight:normal;font-stretch:condensed;font-family:'Bernard MT Condensed';-inkscape-font-specification:'Bernard MT Condensed,  Condensed';fill:#ff0000;fill-opacity:1;stroke-width:0;stroke-miterlimit:4;stroke-dasharray:none"
           id="path849" />
        <path
           d="m 3.1589718,5.0320328 0.035549,-0.1854907 q 0.00106,-0.00422 0.00141,-0.00634 0.00246,-0.010559 0.00246,-0.013727 0,-0.00915 -0.012671,-0.019007 -0.00598,-0.00458 -0.00739,-0.010559 -0.00141,-0.00598 -0.00141,-0.023934 0,-0.011263 0.00986,-0.011263 h 0.06054 q 0.010207,0 0.013727,0.00422 0.00387,0.00422 0.00387,0.022174 0,0.010559 -0.00141,0.012319 -0.00106,0.00176 -0.00774,0.00669 -0.00986,0.00669 -0.014431,0.030974 l -0.05878,0.3097378 q -0.015487,0.080954 -0.02323,0.1038325 -0.00739,0.02323 -0.023582,0.041181 -0.015839,0.018303 -0.037661,0.027454 -0.02147,0.00915 -0.04998,0.00915 -0.030974,0 -0.047869,-0.014783 -0.016543,-0.014431 -0.016543,-0.038013 0,-0.017247 0.011263,-0.027454 0.011263,-0.010207 0.027806,-0.010207 0.024638,0 0.034846,0.028862 0.00493,0.014079 0.014431,0.014079 0.017951,0 0.017951,-0.018655 0,-0.00598 -0.00704,-0.039421 L 3.0076227,4.8588612 q -0.00528,-0.026398 -0.00915,-0.036253 -0.00352,-0.010207 -0.010207,-0.013375 -0.00634,-0.00317 -0.00634,-0.013023 v -0.019711 q 0,-0.00986 0.00282,-0.012319 0.00282,-0.00246 0.010911,-0.00246 h 0.1238951 q 0.00986,0 0.013023,0.00246 0.00317,0.00211 0.00317,0.010207 0,0.017247 -0.00141,0.022526 -0.00141,0.00528 -0.0081,0.0081 -0.010559,0.00422 -0.010559,0.017599 0,0.00774 0.00246,0.020063 z"
           style="font-style:normal;font-variant:normal;font-weight:normal;font-stretch:condensed;font-family:'Bernard MT Condensed';-inkscape-font-specification:'Bernard MT Condensed,  Condensed';fill:#ff0000;fill-opacity:1;stroke-width:0;stroke-miterlimit:4;stroke-dasharray:none"
           id="path851" />
        <path
           d="m 3.4468871,4.7567885 q 0.066171,0 0.11052,0.059484 0.044349,0.059132 0.044349,0.1759874 0,0.126007 -0.045053,0.1907703 -0.045053,0.064411 -0.11228,0.064411 -0.046461,0 -0.080602,-0.029566 -0.034142,-0.029566 -0.052796,-0.078842 -0.018303,-0.049276 -0.018303,-0.1348063 0,-0.1221353 0.042237,-0.1847868 0.042589,-0.062652 0.111928,-0.062652 z m 0.025342,0.088346 q 0,-0.043645 -0.025342,-0.043645 -0.027454,0 -0.027454,0.0535 v 0.292491 q 0,0.053148 0.02499,0.053148 0.027806,0 0.027806,-0.053148 z"
           style="font-style:normal;font-variant:normal;font-weight:normal;font-stretch:condensed;font-family:'Bernard MT Condensed';-inkscape-font-specification:'Bernard MT Condensed,  Condensed';fill:#ff0000;fill-opacity:1;stroke-width:0;stroke-miterlimit:4;stroke-dasharray:none"
           id="path853" />
        <path
           d="m 3.6531442,4.8155683 q -0.00458,-0.00211 -0.00704,-0.00317 -0.0088,-0.00387 -0.011263,-0.00739 -0.00211,-0.00387 -0.00211,-0.015487 0,-0.00634 -3.52e-4,-0.010559 0,-0.010559 0.00282,-0.013727 0.00317,-0.00352 0.013375,-0.00352 h 0.1094642 q 0.0081,0 0.00986,0.00246 0.00176,0.00246 0.00176,0.011967 v 0.3466951 q 0,0.045405 0.02499,0.045405 0.019007,0 0.028862,-0.016191 V 4.8264795 q 0,-0.012671 -0.012319,-0.019711 -0.00598,-0.00352 -0.00739,-0.00739 -0.00106,-0.00422 -0.00106,-0.027454 0,-0.010207 0.011967,-0.010207 h 0.1150957 q 0.00739,0 0.0088,0.00211 0.00176,0.00211 0.00176,0.011263 v 0.4033631 q 0,0.011615 0.0095,0.016191 0.011615,0.00634 0.011615,0.021119 0,0.021119 -0.00176,0.023934 -0.00141,0.00282 -0.010911,0.00282 H 3.8418027 q -0.010207,0 -0.014079,-0.00352 -0.00387,-0.00387 -0.00387,-0.016191 v -0.0088 q 0,-0.014079 -3.52e-4,-0.015839 -0.055964,0.049277 -0.094681,0.049277 -0.033438,0 -0.054556,-0.022174 -0.021119,-0.022174 -0.021119,-0.08553 z"
           style="font-style:normal;font-variant:normal;font-weight:normal;font-stretch:condensed;font-family:'Bernard MT Condensed';-inkscape-font-specification:'Bernard MT Condensed,  Condensed';fill:#ff0000;fill-opacity:1;stroke-width:0;stroke-miterlimit:4;stroke-dasharray:none"
           id="path855" />
        <path
           d="m 4.1138793,4.8553414 q 0.00422,-0.00845 0.010207,-0.029566 0.013375,-0.045757 0.026046,-0.057372 0.013023,-0.011615 0.02851,-0.011615 0.021119,0 0.031678,0.020063 0.010911,0.020062 0.010911,0.050332 0,0.065115 -0.036605,0.065115 -0.018303,0 -0.028158,-0.02147 -0.00598,-0.012319 -0.012319,-0.012319 -0.015839,0 -0.015839,0.034845 v 0.2812278 q 0,0.013375 0.012319,0.019711 0.012319,0.00598 0.012319,0.019359 v 0.015839 q 0,0.00845 -0.00211,0.010911 -0.00176,0.00211 -0.010911,0.00211 H 4.007231 q -0.013727,0 -0.013727,-0.013023 V 5.210132 q 0,-0.00986 0.00598,-0.013023 0.011967,-0.00598 0.011967,-0.018303 V 4.8243677 q 0,-0.011967 -0.00845,-0.017247 -0.00915,-0.00528 -0.010559,-0.0081 -0.00141,-0.00317 -0.00141,-0.018303 0,-0.012671 0.00352,-0.015839 0.00387,-0.00317 0.012671,-0.00317 h 0.095033 q 0.00669,0 0.00915,0.00387 0.00246,0.00352 0.00246,0.017599 z"
           style="font-style:normal;font-variant:normal;font-weight:normal;font-stretch:condensed;font-family:'Bernard MT Condensed';-inkscape-font-specification:'Bernard MT Condensed,  Condensed';fill:#ff0000;fill-opacity:1;stroke-width:0;stroke-miterlimit:4;stroke-dasharray:none"
           id="path857" />
        <path
           d="m 4.5580715,5.210132 v 0.019007 q 0,0.013375 -0.012319,0.013375 H 4.4278408 q -0.0081,0 -0.0081,-0.0088 V 5.210132 q 0,-0.00458 0.00774,-0.0081 0.014079,-0.00669 0.014079,-0.022526 V 4.7353181 q 0,-0.017951 -0.014783,-0.021119 -0.00704,-0.00141 -0.00704,-0.00986 v -0.017951 q 0,-0.00739 0.00211,-0.0095 0.00211,-0.00246 0.010207,-0.00246 h 0.1136879 q 0.012319,0 0.012319,0.011967 v 0.1066483 q 0.034846,-0.036253 0.073915,-0.036253 0.045757,0 0.076731,0.050684 0.031326,0.050332 0.031326,0.2002736 0,0.1418458 -0.031326,0.1911223 -0.031326,0.048925 -0.076378,0.048925 -0.035902,0 -0.074267,-0.037661 z m 0.052092,-0.3424714 q 0,-0.043997 -0.023582,-0.043997 -0.012671,0 -0.020766,0.00634 -0.00774,0.00634 -0.00774,0.015135 v 0.3167772 q 0,0.0081 0.00704,0.013727 0.00739,0.00563 0.017599,0.00563 0.013023,0 0.020063,-0.013023 0.00739,-0.013375 0.00739,-0.032382 z"
           style="font-style:normal;font-variant:normal;font-weight:normal;font-stretch:condensed;font-family:'Bernard MT Condensed';-inkscape-font-specification:'Bernard MT Condensed,  Condensed';fill:#ff0000;fill-opacity:1;stroke-width:0;stroke-miterlimit:4;stroke-dasharray:none"
           id="path859" />
        <path
           d="m 4.9294048,4.7567885 q 0.066171,0 0.1105201,0.059484 0.044349,0.059132 0.044349,0.1759874 0,0.126007 -0.045053,0.1907703 -0.045053,0.064411 -0.1122799,0.064411 -0.046461,0 -0.080602,-0.029566 -0.034142,-0.029566 -0.052796,-0.078842 -0.018303,-0.049276 -0.018303,-0.1348063 0,-0.1221353 0.042237,-0.1847868 0.042589,-0.062652 0.111928,-0.062652 z m 0.025342,0.088346 q 0,-0.043645 -0.025342,-0.043645 -0.027454,0 -0.027454,0.0535 v 0.292491 q 0,0.053148 0.02499,0.053148 0.027806,0 0.027806,-0.053148 z"
           style="font-style:normal;font-variant:normal;font-weight:normal;font-stretch:condensed;font-family:'Bernard MT Condensed';-inkscape-font-specification:'Bernard MT Condensed,  Condensed';fill:#ff0000;fill-opacity:1;stroke-width:0;stroke-miterlimit:4;stroke-dasharray:none"
           id="path861" />
        <path
           d="m 5.2743397,4.7567885 q 0.066171,0 0.1105201,0.059484 0.044349,0.059132 0.044349,0.1759874 0,0.126007 -0.045053,0.1907703 -0.045053,0.064411 -0.11228,0.064411 -0.046461,0 -0.080602,-0.029566 -0.034142,-0.029566 -0.052796,-0.078842 -0.018303,-0.049276 -0.018303,-0.1348063 0,-0.1221353 0.042237,-0.1847868 0.042589,-0.062652 0.1119279,-0.062652 z m 0.025342,0.088346 q 0,-0.043645 -0.025342,-0.043645 -0.027454,0 -0.027454,0.0535 v 0.292491 q 0,0.053148 0.02499,0.053148 0.027806,0 0.027806,-0.053148 z"
           style="font-style:normal;font-variant:normal;font-weight:normal;font-stretch:condensed;font-family:'Bernard MT Condensed';-inkscape-font-specification:'Bernard MT Condensed,  Condensed';fill:#ff0000;fill-opacity:1;stroke-width:0;stroke-miterlimit:4;stroke-dasharray:none"
           id="path863" />
        <path
           d="m 5.6006205,5.0879967 v 0.094329 q 0,0.0095 0.00915,0.014783 0.00704,0.00387 0.00704,0.013727 v 0.018655 q 0,0.013023 -0.013375,0.013023 H 5.4760214 q -0.012671,0 -0.012671,-0.015839 V 5.210132 q 0,-0.00598 0.010207,-0.013727 0.00845,-0.00669 0.00915,-0.0095 0.00106,-0.00282 0.00106,-0.0088 V 4.7567885 q 0,-0.022526 -0.013727,-0.032382 -0.00458,-0.00352 -0.00528,-0.00634 -3.519e-4,-0.00282 -3.519e-4,-0.013727 0,-0.022878 7.039e-4,-0.026398 0.00106,-0.00352 0.010911,-0.00352 h 0.111576 q 0.0088,0 0.010911,0.00282 0.00211,0.00246 0.00211,0.012671 V 4.9950754 L 5.6653838,4.846894 q 0.00634,-0.014079 0.00634,-0.019007 0,-0.011615 -0.016543,-0.018303 -0.00739,-0.00282 -0.00986,-0.00704 -0.00246,-0.00422 -0.00246,-0.017247 0,-0.016191 0.00317,-0.019711 0.00317,-0.00387 0.011967,-0.00387 h 0.097145 q 0.0081,0.00106 0.0081,0.018655 0,0.015839 -0.00317,0.021471 -0.00282,0.00563 -0.013023,0.010911 -0.015839,0.00774 -0.022174,0.020766 L 5.7002293,4.8856113 5.7752,5.1749345 q 0.00317,0.013023 0.014783,0.020766 0.00774,0.00493 0.00774,0.015135 v 0.018655 q 0,0.013023 -0.014431,0.013023 h -0.094681 q -0.017951,0 -0.02323,-0.02323 l -0.040125,-0.180211 z"
           style="font-style:normal;font-variant:normal;font-weight:normal;font-stretch:condensed;font-family:'Bernard MT Condensed';-inkscape-font-specification:'Bernard MT Condensed,  Condensed';fill:#ff0000;fill-opacity:1;stroke-width:0;stroke-miterlimit:4;stroke-dasharray:none"
           id="path865" />
        <path
           d="m 6.1292865,4.8116966 q 0.050332,-0.054908 0.094681,-0.054908 0.019359,0 0.036605,0.0081 0.017599,0.0081 0.02851,0.029918 0.010911,0.02147 0.010911,0.047165 v 0.3333201 q 0,0.00915 0.00774,0.017951 0.0088,0.00986 0.0088,0.019711 v 0.016895 q 0,0.012671 -0.011615,0.012671 H 6.2046091 Q 6.1834907,5.2259708 6.1834907,5.1911253 V 4.8595651 q 0,-0.024286 -0.023582,-0.024286 -0.014783,0 -0.022878,0.00774 -0.00774,0.00739 -0.00774,0.018655 v 0.3178332 q 0,0.00986 0.010559,0.018303 0.00634,0.00528 0.00634,0.010911 v 0.021118 q 0,0.012671 -0.011967,0.012671 H 6.0317895 Q 6.0124309,5.223507 6.0124309,5.1911253 V 4.8595651 q 0,-0.02323 -0.019007,-0.02323 -0.00774,0 -0.02675,0.010207 -0.00176,0.00106 -0.00528,0.00282 v 0.3301523 q 0,0.0095 0.010911,0.017951 0.00704,0.00528 0.00704,0.013375 v 0.019007 q 0,0.012671 -0.012671,0.012671 H 5.8343317 q -0.0095,0 -0.0095,-0.00845 v -0.02323 q 0,-0.00528 0.0095,-0.015135 0.010207,-0.010207 0.010207,-0.016191 V 4.8240157 q 0,-0.014079 -0.012319,-0.019359 -0.00739,-0.00317 -0.00739,-0.013727 v -0.017951 q 0,-0.011263 0.013727,-0.011263 h 0.1105201 q 0.012319,0 0.012319,0.011263 v 0.035549 q 0.046461,-0.05174 0.093625,-0.05174 0.047517,0 0.074267,0.054908 z"
           style="font-style:normal;font-variant:normal;font-weight:normal;font-stretch:condensed;font-family:'Bernard MT Condensed';-inkscape-font-specification:'Bernard MT Condensed,  Condensed';fill:#ff0000;fill-opacity:1;stroke-width:0;stroke-miterlimit:4;stroke-dasharray:none"
           id="path867" />
        <path
           d="M 6.5305379,4.9014501 V 4.833519 q 0,-0.028158 -0.022878,-0.028158 -0.031326,0 -0.031326,0.042589 0,0.023934 -0.00563,0.034141 -0.00528,0.010207 -0.024638,0.017599 -0.019007,0.00704 -0.040829,0.00704 -0.044701,0 -0.044701,-0.047869 0,-0.045053 0.038717,-0.073563 0.039069,-0.02851 0.1017207,-0.02851 0.041181,0 0.073915,0.011263 0.033086,0.011263 0.052796,0.038013 0.01971,0.02675 0.01971,0.05878 v 0.3213529 q 7.04e-4,0.00246 0.010559,0.010559 0.00704,0.00528 0.00704,0.015487 0,0.014079 -0.00387,0.020063 -0.00387,0.00563 -0.019007,0.010559 -0.014783,0.00493 -0.037309,0.00493 -0.027454,0 -0.045757,-0.00986 -0.018303,-0.010207 -0.02851,-0.039421 -0.030622,0.031678 -0.049628,0.040477 -0.019007,0.0088 -0.039069,0.0088 -0.044701,0 -0.069339,-0.034845 -0.024286,-0.035198 -0.024286,-0.1147438 0,-0.079546 0.022878,-0.1101681 0.022878,-0.030974 0.089402,-0.05702 0.042237,-0.016191 0.070043,-0.029566 z m 0,0.045757 q -0.039773,0.017599 -0.047517,0.039773 -0.00774,0.021822 -0.00774,0.098905 0,0.056668 0.00634,0.071803 0.00634,0.014783 0.021823,0.014783 0.027102,0 0.027102,-0.045053 z"
           style="font-style:normal;font-variant:normal;font-weight:normal;font-stretch:condensed;font-family:'Bernard MT Condensed';-inkscape-font-specification:'Bernard MT Condensed,  Condensed';fill:#ff0000;fill-opacity:1;stroke-width:0;stroke-miterlimit:4;stroke-dasharray:none"
           id="path869" />
        <path
           d="m 6.818453,4.8553414 q 0.00422,-0.00845 0.010207,-0.029566 0.013375,-0.045757 0.026046,-0.057372 0.013023,-0.011615 0.02851,-0.011615 0.021119,0 0.031678,0.020063 0.010911,0.020062 0.010911,0.050332 0,0.065115 -0.036605,0.065115 -0.018303,0 -0.028158,-0.02147 -0.00598,-0.012319 -0.012319,-0.012319 -0.015839,0 -0.015839,0.034845 v 0.2812278 q 0,0.013375 0.012319,0.019711 0.012319,0.00598 0.012319,0.019359 v 0.015839 q 0,0.00845 -0.00211,0.010911 -0.00176,0.00211 -0.010911,0.00211 H 6.7118046 q -0.013727,0 -0.013727,-0.013023 V 5.210132 q 0,-0.00986 0.00598,-0.013023 0.011967,-0.00598 0.011967,-0.018303 V 4.8243677 q 0,-0.011967 -0.00845,-0.017247 -0.00915,-0.00528 -0.010559,-0.0081 -0.00141,-0.00317 -0.00141,-0.018303 0,-0.012671 0.00352,-0.015839 0.00387,-0.00317 0.012671,-0.00317 h 0.095033 q 0.00669,0 0.00915,0.00387 0.00246,0.00352 0.00246,0.017599 z"
           style="font-style:normal;font-variant:normal;font-weight:normal;font-stretch:condensed;font-family:'Bernard MT Condensed';-inkscape-font-specification:'Bernard MT Condensed,  Condensed';fill:#ff0000;fill-opacity:1;stroke-width:0;stroke-miterlimit:4;stroke-dasharray:none"
           id="path871" />
        <path
           d="m 7.0859539,5.0879967 v 0.094329 q 0,0.0095 0.00915,0.014783 0.00704,0.00387 0.00704,0.013727 v 0.018655 q 0,0.013023 -0.013375,0.013023 H 6.9613549 q -0.012671,0 -0.012671,-0.015839 V 5.210132 q 0,-0.00598 0.010207,-0.013727 0.00845,-0.00669 0.00915,-0.0095 0.00106,-0.00282 0.00106,-0.0088 V 4.7567885 q 0,-0.022526 -0.013727,-0.032382 -0.00458,-0.00352 -0.00528,-0.00634 -3.52e-4,-0.00282 -3.52e-4,-0.013727 0,-0.022878 7.04e-4,-0.026398 0.00106,-0.00352 0.010911,-0.00352 h 0.111576 q 0.0088,0 0.010911,0.00282 0.00211,0.00246 0.00211,0.012671 V 4.9950754 L 7.1507173,4.846894 q 0.00634,-0.014079 0.00634,-0.019007 0,-0.011615 -0.016543,-0.018303 -0.00739,-0.00282 -0.00986,-0.00704 -0.00246,-0.00422 -0.00246,-0.017247 0,-0.016191 0.00317,-0.019711 0.00317,-0.00387 0.011967,-0.00387 h 0.097145 q 0.0081,0.00106 0.0081,0.018655 0,0.015839 -0.00317,0.021471 -0.00282,0.00563 -0.013023,0.010911 -0.015839,0.00774 -0.022174,0.020766 l -0.024638,0.052092 0.074971,0.2893232 q 0.00317,0.013023 0.014783,0.020766 0.00774,0.00493 0.00774,0.015135 v 0.018655 q 0,0.013023 -0.014431,0.013023 h -0.094681 q -0.017951,0 -0.02323,-0.02323 l -0.040125,-0.180211 z"
           style="font-style:normal;font-variant:normal;font-weight:normal;font-stretch:condensed;font-family:'Bernard MT Condensed';-inkscape-font-specification:'Bernard MT Condensed,  Condensed';fill:#ff0000;fill-opacity:1;stroke-width:0;stroke-miterlimit:4;stroke-dasharray:none"
           id="path873" />
        <path
           d="m 7.4938927,4.7698116 0.019359,0.097497 q 7.039e-4,0.00458 7.039e-4,0.0081 0,0.00986 -0.019007,0.00986 -0.012671,0 -0.018655,-0.00317 -0.00563,-0.00317 -0.013023,-0.016895 -0.00845,-0.016191 -0.025694,-0.038365 -0.017247,-0.022174 -0.030974,-0.022174 -0.00528,0 -0.0095,0.00493 -0.00387,0.00493 -0.00387,0.011615 0,0.017951 0.051388,0.1017207 0.044349,0.072859 0.060188,0.1143918 0.015839,0.041533 0.015839,0.093625 0,0.05526 -0.023934,0.086234 -0.023934,0.030622 -0.056316,0.030622 -0.020414,0 -0.042941,-0.014783 -0.012319,-0.0081 -0.016543,-0.0081 -0.00493,0 -0.00563,0.0081 -0.00141,0.0095 -0.00422,0.011967 -0.00282,0.00282 -0.018303,0.00282 -0.011967,0 -0.015487,-0.00352 -0.00352,-0.00352 -0.00493,-0.012319 l -0.017599,-0.098201 q -0.00106,-0.00704 -0.00106,-0.0088 0,-0.00986 0.023582,-0.00986 0.012319,0 0.016895,0.00317 0.00493,0.00317 0.012319,0.018303 0.027454,0.057372 0.052092,0.057372 0.015839,0 0.015839,-0.019007 0,-0.016895 -0.011967,-0.041885 -0.011615,-0.02499 -0.045757,-0.08201 -0.035902,-0.06054 -0.052092,-0.1013687 -0.015839,-0.040829 -0.015839,-0.08201 0,-0.055964 0.023934,-0.083418 0.023934,-0.027454 0.058076,-0.027454 0.017951,0 0.040829,0.012319 0.011615,0.00634 0.015839,0.00634 0.00563,0 0.00669,-0.00739 0.00141,-0.00774 0.00563,-0.0095 0.00422,-0.00176 0.017951,-0.00176 0.0088,0 0.011263,0.00211 0.00282,0.00176 0.00493,0.010911 z"
           style="font-style:normal;font-variant:normal;font-weight:normal;font-stretch:condensed;font-family:'Bernard MT Condensed';-inkscape-font-specification:'Bernard MT Condensed,  Condensed';fill:#ff0000;fill-opacity:1;stroke-width:0;stroke-miterlimit:4;stroke-dasharray:none"
           id="path875" />
        <path
           d="m 7.863818,5.210132 v 0.019007 q 0,0.013375 -0.012319,0.013375 H 7.7335874 q -0.0081,0 -0.0081,-0.0088 V 5.210132 q 0,-0.00458 0.00774,-0.0081 0.014079,-0.00669 0.014079,-0.022526 V 4.7353181 q 0,-0.017951 -0.014783,-0.021119 -0.00704,-0.00141 -0.00704,-0.00986 v -0.017951 q 0,-0.00739 0.00211,-0.0095 0.00211,-0.00246 0.010207,-0.00246 h 0.1136878 q 0.012319,0 0.012319,0.011967 v 0.1066483 q 0.034845,-0.036253 0.073915,-0.036253 0.045757,0 0.076731,0.050684 0.031326,0.050332 0.031326,0.2002736 0,0.1418458 -0.031326,0.1911223 -0.031326,0.048925 -0.076378,0.048925 -0.035901,0 -0.074267,-0.037661 z m 0.052092,-0.3424714 q 0,-0.043997 -0.023582,-0.043997 -0.012671,0 -0.020766,0.00634 -0.00774,0.00634 -0.00774,0.015135 v 0.3167772 q 0,0.0081 0.00704,0.013727 0.00739,0.00563 0.017599,0.00563 0.013023,0 0.020063,-0.013023 0.00739,-0.013375 0.00739,-0.032382 z"
           style="font-style:normal;font-variant:normal;font-weight:normal;font-stretch:condensed;font-family:'Bernard MT Condensed';-inkscape-font-specification:'Bernard MT Condensed,  Condensed';fill:#ff0000;fill-opacity:1;stroke-width:0;stroke-miterlimit:4;stroke-dasharray:none"
           id="path877" />
        <path
           d="M 8.2608455,4.9014501 V 4.833519 q 0,-0.028158 -0.022878,-0.028158 -0.031326,0 -0.031326,0.042589 0,0.023934 -0.00563,0.034141 -0.00528,0.010207 -0.024638,0.017599 -0.019007,0.00704 -0.040829,0.00704 -0.044701,0 -0.044701,-0.047869 0,-0.045053 0.038717,-0.073563 0.039069,-0.02851 0.1017207,-0.02851 0.041181,0 0.073915,0.011263 0.033086,0.011263 0.052796,0.038013 0.019711,0.02675 0.019711,0.05878 v 0.3213529 q 7.04e-4,0.00246 0.010559,0.010559 0.00704,0.00528 0.00704,0.015487 0,0.014079 -0.00387,0.020063 -0.00387,0.00563 -0.019007,0.010559 -0.014783,0.00493 -0.037309,0.00493 -0.027454,0 -0.045757,-0.00986 -0.018303,-0.010207 -0.02851,-0.039421 -0.030622,0.031678 -0.049628,0.040477 -0.019007,0.0088 -0.039069,0.0088 -0.044701,0 -0.069339,-0.034845 -0.024286,-0.035198 -0.024286,-0.1147438 0,-0.079546 0.022878,-0.1101681 0.022878,-0.030974 0.089402,-0.05702 0.042237,-0.016191 0.070043,-0.029566 z m 0,0.045757 q -0.039773,0.017599 -0.047517,0.039773 -0.00774,0.021822 -0.00774,0.098905 0,0.056668 0.00634,0.071803 0.00634,0.014783 0.021822,0.014783 0.027102,0 0.027102,-0.045053 z"
           style="font-style:normal;font-variant:normal;font-weight:normal;font-stretch:condensed;font-family:'Bernard MT Condensed';-inkscape-font-specification:'Bernard MT Condensed,  Condensed';fill:#ff0000;fill-opacity:1;stroke-width:0;stroke-miterlimit:4;stroke-dasharray:none"
           id="path879" />
        <path
           d="m 8.548761,4.8553414 q 0.00422,-0.00845 0.010207,-0.029566 0.013375,-0.045757 0.026046,-0.057372 0.013023,-0.011615 0.02851,-0.011615 0.021118,0 0.031678,0.020063 0.010911,0.020062 0.010911,0.050332 0,0.065115 -0.036605,0.065115 -0.018303,0 -0.028158,-0.02147 -0.00598,-0.012319 -0.012319,-0.012319 -0.015839,0 -0.015839,0.034845 v 0.2812278 q 0,0.013375 0.012319,0.019711 0.012319,0.00598 0.012319,0.019359 v 0.015839 q 0,0.00845 -0.00211,0.010911 -0.00176,0.00211 -0.010911,0.00211 H 8.4421127 q -0.013727,0 -0.013727,-0.013023 V 5.210132 q 0,-0.00986 0.00598,-0.013023 0.011967,-0.00598 0.011967,-0.018303 V 4.8243677 q 0,-0.011967 -0.00845,-0.017247 -0.00915,-0.00528 -0.010559,-0.0081 -0.00141,-0.00317 -0.00141,-0.018303 0,-0.012671 0.00352,-0.015839 0.00387,-0.00317 0.012671,-0.00317 h 0.095033 q 0.00669,0 0.00915,0.00387 0.00246,0.00352 0.00246,0.017599 z"
           style="font-style:normal;font-variant:normal;font-weight:normal;font-stretch:condensed;font-family:'Bernard MT Condensed';-inkscape-font-specification:'Bernard MT Condensed,  Condensed';fill:#ff0000;fill-opacity:1;stroke-width:0;stroke-miterlimit:4;stroke-dasharray:none"
           id="path881" />
        <path
           d="m 8.767337,5.0637105 h -0.022878 q -0.00704,0 -0.0088,-0.00211 -0.00141,-0.00211 -0.00141,-0.015135 0,-0.019359 -0.023934,-0.1798591 -0.018303,-0.1267109 -0.018303,-0.1372701 0,-0.026046 0.017247,-0.044349 0.017599,-0.018655 0.049276,-0.018655 0.03027,0 0.046109,0.020063 0.016191,0.019711 0.016191,0.046109 0,0.018303 -0.025694,0.1854906 -0.016895,0.1094642 -0.017247,0.126007 0,0.015135 -0.00176,0.017599 -0.00176,0.00211 -0.0088,0.00211 z m -0.014783,0.039773 q 0.026398,0 0.043293,0.020767 0.016895,0.020415 0.016895,0.04998 0,0.027806 -0.017247,0.050684 -0.017247,0.022526 -0.042941,0.022526 -0.024638,0 -0.040477,-0.019711 -0.015839,-0.020063 -0.015839,-0.04998 0,-0.029566 0.015135,-0.05174 0.015135,-0.022526 0.041181,-0.022526 z"
           style="font-style:normal;font-variant:normal;font-weight:normal;font-stretch:condensed;font-family:'Bernard MT Condensed';-inkscape-font-specification:'Bernard MT Condensed,  Condensed';fill:#ff0000;fill-opacity:1;stroke-width:0;stroke-miterlimit:4;stroke-dasharray:none"
           id="path883" />
      </g>
    </g>
  </g>
</svg>
